<?xml version="1.0" encoding="UTF-8" standalone="no"?>
<!-- Created with Inkscape (http://www.inkscape.org/) -->

<svg
   xmlns:dc="http://purl.org/dc/elements/1.1/"
   xmlns:cc="http://creativecommons.org/ns#"
   xmlns:rdf="http://www.w3.org/1999/02/22-rdf-syntax-ns#"
   xmlns:svg="http://www.w3.org/2000/svg"
   xmlns="http://www.w3.org/2000/svg"
   xmlns:sodipodi="http://sodipodi.sourceforge.net/DTD/sodipodi-0.dtd"
   xmlns:inkscape="http://www.inkscape.org/namespaces/inkscape"
   version="1.1"
   id="svg4606"
   width="400"
   height="138"
   viewBox="0 0 400 138"
   sodipodi:docname="reader-logo.svg"
   inkscape:export-filename="/home/linus/Untitled.png.png"
   inkscape:export-xdpi="96"
   inkscape:export-ydpi="96"
   inkscape:version="0.92.2 5c3e80d, 2017-08-06">
  <metadata
     id="metadata4612">
    <rdf:RDF>
      <cc:Work
         rdf:about="">
        <dc:format>image/svg+xml</dc:format>
        <dc:type
           rdf:resource="http://purl.org/dc/dcmitype/StillImage" />
        <dc:title></dc:title>
      </cc:Work>
    </rdf:RDF>
  </metadata>
  <defs
     id="defs4610" />
  <sodipodi:namedview
     pagecolor="#ffffff"
     bordercolor="#666666"
     borderopacity="1"
     objecttolerance="10"
     gridtolerance="10"
     guidetolerance="10"
     inkscape:pageopacity="0"
     inkscape:pageshadow="2"
     inkscape:window-width="1916"
     inkscape:window-height="1040"
     id="namedview4608"
     showgrid="false"
     showguides="false"
     inkscape:zoom="1.81"
     inkscape:cx="327.55689"
     inkscape:cy="118.63826"
     inkscape:window-x="0"
     inkscape:window-y="38"
     inkscape:window-maximized="0"
     inkscape:current-layer="svg4606" />
  <rect
     style="color:#000000;clip-rule:nonzero;display:inline;overflow:visible;visibility:visible;opacity:1;isolation:auto;mix-blend-mode:normal;color-interpolation:sRGB;color-interpolation-filters:linearRGB;solid-color:#000000;solid-opacity:1;fill:#9b8264;fill-opacity:1;fill-rule:evenodd;stroke:none;stroke-width:0.87395006px;stroke-linecap:butt;stroke-linejoin:miter;stroke-miterlimit:4;stroke-dasharray:none;stroke-dashoffset:0;stroke-opacity:1;color-rendering:auto;image-rendering:auto;shape-rendering:auto;text-rendering:auto;enable-background:accumulate"
     id="rect5990"
     width="400"
     height="138"
     x="0"
     y="0" />
  <path
     style="fill:#2d2723;fill-opacity:1;stroke-width:0.32454622"
     d="M 76.621445,11.45918 C 76.230118,11.39323 75.538386,11.63759 74.502939,12.192384 66.32074,17.290545 56.592933,19.356189 49.170788,13.230636 45.472424,10.068681 44.061508,9.2001271 42.51371,9.1322541 36.411292,8.6856624 19.121129,13.591418 22.31358,18.334733 c 1.636056,1.872888 3.321009,1.618201 2.20251,-0.332994 -1.454129,-2.762268 3.250653,-4.354571 5.209386,-4.582942 8.565031,0.904775 12.685192,8.920224 20.242077,9.773629 l 3.514192,0.393561 -0.638506,0.66033 c -1.503085,17.115313 -8.145501,31.479912 -10.280331,46.593772 -0.085,0.627209 -1.887924,0.178591 -3.45973,0.387716 -3.741527,0.213698 -16.706159,3.333813 -17.663235,7.981509 -0.04868,0.524134 0.04521,0.563688 0.7627,0.320007 6.776198,-4.357831 14.4457,0.02015 20.87209,0.781259 1.884856,0.384801 8.629951,-0.69478 10.514758,-0.848857 2.582121,-0.473956 5.566056,-2.665258 7.39273,-3.868406 3.965706,-2.618006 4.659224,-3.507116 2.266717,-2.907065 -3.866112,0.186042 -7.72893,1.490429 -11.628316,1.273763 -1.426391,-0.11141 -0.891779,-0.875807 -0.891779,-0.875807 2.945648,-5.37094 4.016412,-19.517454 7.56837,-23.991336 1.274696,-0.788448 1.541406,-0.837866 3.101338,-0.574627 10.701597,6.035416 10.210599,17.154507 9.343721,27.227851 0.308905,13.642625 14.852114,1.884923 20.546311,-1.942776 1.248023,-0.834288 2.281995,-1.652363 2.297376,-1.817948 -3.583148,-0.776641 -7.840633,4.411343 -10.930013,4.398702 -1.594877,-0.12457 -2.511824,-2.536441 -2.119892,-5.57519 0.645653,-5.005897 0.370678,-13.893783 -0.503603,-16.277159 -0.731251,-1.993473 -2.50404,-5.467837 -3.549787,-6.95735 -1.238631,-1.764236 -3.456123,-3.144722 -4.59407,-3.902123 -1.384194,-0.944369 -1.318487,-0.741091 -0.086,-1.454536 5.716806,-3.008375 13.7147,-5.063468 18.450134,-9.169538 0.476099,-0.452723 0.407979,-0.627427 -0.613646,-1.575848 -1.51575,-1.407137 -4.592165,-5.625087 -9.652659,-13.234721 -1.899688,-2.856626 -3.056613,-5.21171 -2.977688,-6.061537 0.03962,-0.426505 -0.08292,-0.6656 -0.387289,-0.716892 z M 201.32665,21.653087 c -8.64679,2.320978 -18.62277,7.94599 -21.26975,15.660671 -0.54012,4.54965 1.17285,7.450786 3.14302,11.308442 l -4.75907,3.356626 c -5.38525,3.798168 -7.82468,6.312845 -9.76768,10.069581 -6.25267,10.568627 5.99466,16.984123 6.29049,26.191365 0.0184,0.867915 0.10705,1.829142 0.19654,2.135673 0.25574,0.875996 1.00264,0.722069 2.20305,-0.453316 8.62054,-7.256661 15.48421,-11.946254 21.95989,-21.455 4.5707,-11.409714 -5.08983,-18.741622 -9.82226,-28.415775 -5.42292,-9.259606 4.64555,-12.831405 12.1374,-18.131478 0.0139,-0.149705 -0.10188,-0.235293 -0.31163,-0.266789 z M 68.071715,17.92553 l 0.9563,1.737542 c 1.28512,3.755488 11.406838,15.340101 10.18544,16.390851 -6.461052,3.106194 -13.566555,5.966883 -19.40201,8.963687 -1.722363,0.84503 -1.882344,0.294654 -1.213783,-4.17268 1.324618,-6.986623 2.52121,-12.172314 3.23457,-19.565744 2.292007,-1.260902 4.071636,-2.241367 6.239483,-3.353656 z m 48.926505,19.032552 c -0.55663,-0.04347 -4.53634,2.327136 -8.08946,4.818037 -1.06723,0.748178 -2.97766,1.977092 -4.24498,2.73113 -4.36188,2.595241 -6.332336,4.563774 -9.423014,8.763142 -7.187831,9.586653 4.037836,18.575421 3.556489,27.444824 -0.14365,1.757918 -0.245532,3.296408 -0.226614,3.418508 4.559899,-0.612898 12.896979,-9.293041 16.767359,-12.361094 1.3054,-1.023853 2.39292,-2.038775 2.41666,-2.255398 0.0585,-0.536387 -1.77934,-0.307292 -2.42071,0.301814 -2.08233,1.186554 -5.32293,4.778549 -7.42415,5.517235 -0.0836,-0.07988 -0.16991,-0.785639 -0.1918,-1.568599 -0.039,-1.393941 -0.96005,-4.182422 -2.15167,-6.514896 -0.73353,-1.435814 -0.5228,-1.843484 1.17104,-2.268305 6.69492,-2.409525 11.98457,-6.80361 14.12689,-11.192332 1.3363,-3.035124 0.58584,-7.243069 -1.95886,-10.98293 -1.7075,-2.509472 -2.09031,-3.59765 -1.68964,-4.805681 0.2623,-0.790852 0.21629,-1.011568 -0.21754,-1.045455 z m 16.84616,13.451329 c -1.66468,2.398988 -0.95079,5.087906 1.03526,6.346738 0.37734,0.233013 -0.44537,0.996761 -3.6776,3.414541 -8.37867,5.914415 -8.63695,13.458448 -1.83937,20.154044 1.87855,1.815792 2.88067,3.529318 3.0293,5.179748 0.0642,0.713413 0.19116,1.414165 0.28214,1.557236 3.97661,-0.06928 8.28919,-6.290398 11.11171,-9.193573 0.84974,2.069254 1.85553,4.130175 2.68101,5.839615 1.01011,2.089274 1.90854,4.034582 1.99651,4.322907 0.088,0.288328 0.36807,0.539793 0.622,0.558747 5.40151,-3.501563 11.11928,-8.861731 14.3203,-11.970101 1.55355,-1.509333 1.63165,-2.22435 0.13939,-1.277587 -2.48863,1.109858 -4.12593,2.696495 -6.2031,4.381109 -2.21807,1.36168 -4.23584,-4.974272 -4.86988,-6.511747 -3.23117,-10.693593 2.11534,-17.049951 10.72835,-24.167302 0.013,-0.139741 -0.90961,-0.317978 -2.0498,-0.395696 -4.41732,-0.140952 -10.9041,-4.343869 -10.91478,-8.463405 0.014,-0.150303 -0.20681,-0.365876 -0.49069,-0.479099 -4.52932,2.272403 -13.51412,6.934611 -15.90075,10.703825 z m 71.29212,13.117591 c -2.40173,5.191324 -2.04292,10.933314 1.86178,15.930902 2.40398,3.021497 3.51082,7.113631 3.10539,11.478985 -0.0968,1.042519 -0.001,1.250253 0.59598,1.296899 0.41532,0.03244 0.96081,-0.267091 1.31104,-0.720028 4.57959,-3.985543 9.70417,-8.226307 13.66469,-12.292881 0.56924,-0.59886 1.12287,-1.147768 1.22991,-1.219821 0.67905,-0.457175 1.24292,-1.467572 0.96654,-1.731711 -3.92925,0.554415 -7.34286,5.931608 -10.07627,6.754051 0.75293,-1.542828 -2.4618,-8.646442 -2.08945,-9.153371 0.92019,-0.637908 1.82405,-1.249911 2.48202,-1.9406 2.76753,-2.15561 7.37702,-6.101382 9.04416,-8.922857 1.34297,-2.345902 1.02759,-4.133421 -1.31867,-7.478301 -0.96528,-1.37613 -1.95894,-3.000393 -2.20788,-3.609087 -0.51071,-1.248712 -0.19274,-2.706558 0.7428,-3.408602 -4.62705,-0.866361 -16.62127,10.784715 -19.31204,15.016422 z m 39.33798,-12.22591 c -0.56194,-0.04389 -9.80644,6.471115 -10.1483,7.15193 -0.55613,1.107635 0.29607,1.154591 1.9115,0.105178 l 1.60061,-1.039663 1.63736,1.511884 c 1.59889,1.47612 1.62249,1.528024 0.99694,2.181484 -0.72598,6.73883 -1.82856,14.500594 -2.28542,22.284078 -1.27899,1.352011 -7.58229,5.260726 -6.91358,6.4288 2.84189,1.888722 5.70096,2.035411 7.82659,4.650204 0.75184,0.956095 1.63774,1.759497 1.96858,1.78534 1.44767,-0.865429 9.69657,-7.78148 10.09058,-9.947125 0.0589,-0.634151 -0.62204,-0.467346 -1.54122,0.37736 -1.70895,1.326193 -2.57637,1.873906 -4.26299,0.453053 -0.54252,-0.475325 -0.69376,-0.882919 -0.51875,-1.395813 0.78824,-2.310201 1.14565,-4.8721 1.94221,-13.925108 l 0.8837,-10.047276 c 0.93538,-0.529586 4.12131,-3.054121 4.60835,-2.243133 1.26495,2.006118 2.84706,2.650281 4.64862,2.851363 1.33201,0.144197 0.88298,0.714659 -2.16261,2.747282 -0.81519,0.736888 -5.52531,3.334122 -4.77473,4.011637 0.34492,0.274693 1.35405,-0.256012 4.474,-2.353002 3.82862,-2.573261 10.14495,-7.124273 12.68409,-9.139299 2.78078,-2.206818 2.50792,-3.141458 -0.45687,-1.564457 -4.83039,3.696495 -5.83016,-2.771706 -8.0215,-3.186772 -0.32215,-0.02259 -1.86247,0.83213 -3.42308,1.899218 -3.72892,2.907485 -6.87984,1.245625 -9.16889,-1.8774 -0.66337,-0.929079 -1.38121,-1.703052 -1.59522,-1.719766 z M 141.87875,46.218887 c 0.20054,0.012 0.84605,0.929854 1.43418,2.040016 1.09729,2.071275 2.6701,3.55228 5.17126,4.869009 0.75817,0.399137 1.73242,0.753421 2.16491,0.787202 1.82523,0.142561 1.9165,0.42036 0.54017,1.645925 -4.95329,5.051764 -8.77876,12.235234 -8.19106,19.073669 0.20613,1.834705 0.182,1.912436 -0.8556,2.763269 -0.58717,0.481485 -1.16845,0.876765 -1.29176,0.878736 -0.12334,0.0021 -0.5874,-0.518346 -1.03103,-1.156113 -3.50041,-4.001915 -7.3731,-8.676916 -7.0245,-13.223908 0.18283,-2.081448 1.04548,-3.59016 2.75224,-4.66692 1.54539,-0.961087 1.8165,-1.027799 3.15877,-0.775319 5.70873,1.264528 11.36305,-2.228767 10.56467,-3.652356 -9.61097,3.277862 -20.66198,-0.370474 -10.34404,-6.986433 1.42305,-0.890401 2.75126,-1.608821 2.95179,-1.596777 z m 42.16942,3.553287 c 2.26658,3.079959 4.63231,6.748441 5.84348,9.253397 4.1885,8.40955 2.68445,17.966361 -6.87028,22.712417 -0.21695,0.08709 -0.34539,-0.194927 -0.30288,-0.664465 0.0966,-1.066086 -1.46575,-4.042511 -4.61326,-8.788507 -4.96406,-7.108781 -4.05064,-15.536631 3.67888,-20.99642 z m -75.8705,-5.182797 c 0.61443,0.207733 3.97511,6.158413 4.41141,7.86036 1.57854,6.817589 -3.65488,7.248074 -7.59883,10.482281 l -1.13262,0.922007 -0.51549,-1.207939 c -1.33481,-3.126829 -1.48255,-6.534581 -0.40634,-9.387291 0.91851,-2.434697 1.5005,-3.700291 2.13535,-4.64571 1.32526,-1.973552 2.80694,-3.925695 3.05566,-4.025543 0.0139,-0.0056 0.031,-0.0048 0.0509,0.0019 z m 107.39531,11.767085 c 1.72864,3.3547 4.99084,6.366445 4.39256,9.511021 -0.085,2.352175 -3.06432,4.958317 -4.95668,6.182433 -0.49076,0.311357 -0.98793,0.558501 -1.10492,0.549368 -4.52888,-4.463222 -1.99992,-14.183505 1.66904,-16.242822 z"
     id="path5159"
     inkscape:connector-curvature="0"
     sodipodi:nodetypes="scccccccccccccccccccccccccssccccssssccccccscccccccccccccscccccccccccccsssccccscccccccccccccccscccccccccccccccccccccccccccccccccscccccccccscccccccccccccccccccccccsscccccccccc" />
  <path
     style="fill:#3e2615;fill-opacity:0.28834354;stroke-width:0.31754982"
     d="m 359.1808,4.7830571 c -4.87475,0.051586 -9.91934,0.8863816 -14.02282,3.68387 -4.39055,1.9465879 -7.75899,5.5891249 -10.52392,9.4377889 0.41681,2.913189 2.7631,-2.281457 3.59881,-3.13388 4.6131,-4.8792944 10.89953,-8.1446053 17.60434,-8.6766866 1.35929,-0.1640774 8.4731,-0.8936884 3.34359,-1.3110923 z m 4.85873,0.2295557 c -0.11987,2.3654126 5.45554,0.1099622 1.18374,0.1971319 -0.39115,-0.083811 -0.7842,-0.1658473 -1.18374,-0.1971319 z m -4.77712,2.3496618 c -0.95024,1.5036557 2.26122,3.9619864 0.90579,1.140122 -0.10311,-0.4573675 -0.364,-1.0677728 -0.90579,-1.140122 z m -5.36839,0.5230286 c -2.60995,1.458772 2.79156,6.3064308 0.69239,1.7292094 -0.0973,-0.6041471 -0.0978,-1.3571975 -0.69239,-1.7292094 z m 15.15868,0.669533 c 0.0797,2.7569198 2.7091,0.5637356 0,0 z m -18.8882,0.4399794 c -2.81387,-0.6432328 -2.7764,6.6680734 -5.05289,2.3927754 -3.46238,1.426363 1.36949,3.418353 2.53592,4.738649 -1.44839,-2.034677 3.19435,-2.526666 0.70735,-4.127607 0.1331,-1.256951 1.61287,-1.774497 1.80962,-3.0038174 z m 14.4014,0.881357 c -2.33351,1.1857674 1.77608,4.4128864 0.36972,1.0577154 -0.0303,-0.324167 0.0639,-0.911984 -0.36972,-1.0577154 z m 9.86496,0.8561614 c -2.32405,0.01722 -1.78163,3.73626 -0.007,1.039361 0.68307,-0.211004 1.11799,-1.251235 0.007,-1.039361 z m -17.9366,1.950277 c -2.02558,0.107815 1.09641,0.451307 0,0 z m 12.96887,0.59768 c -0.56795,1.142732 1.4826,0.160072 0,0 z m 10.48406,0.02239 c -1.15202,1.472879 1.8065,0.817271 0,0 z m -29.34814,0.296276 c -0.0243,1.963428 2.32493,-0.336079 0,0 z m 33.53025,0.0018 c 3.80944,4.661365 8.42633,8.810536 11.16168,14.250098 -0.21488,2.626611 -2.00173,-3.48728 -3.19202,-4.002664 -2.07981,-3.516711 -7.13459,4.783036 -2.57116,2.616995 1.23773,-0.351321 4.17175,-1.209357 2.69196,1.211844 -2.25353,0.633041 -1.29857,2.315963 0.5741,1.487116 1.95481,0.591972 0.44924,3.968268 3.03476,1.854791 3.13616,0.27801 2.09242,5.71617 3.14847,8.170291 0.88819,7.403841 0.76397,15.822556 -4.04022,21.94644 -1.7546,2.343685 -3.20054,-2.269072 -5.37708,-2.797452 -1.79981,-2.465995 2.07731,-1.942802 2.60649,0.06965 2.96947,3.850697 5.12935,-3.302595 5.34135,-5.672251 0.28466,-3.773468 -3.51707,-3.484114 -3.62333,-0.384106 -2.95166,-0.08296 0.72944,-4.992598 -2.65648,-2.891165 -2.18473,2.677631 -3.23154,6.769802 -4.59937,9.461369 1.55795,0.643365 2.38171,1.933172 0.1465,1.03244 -3.29485,-1.280141 -5.19298,3.186043 -1.56481,4.266322 0.59783,2.839143 4.47583,3.726389 4.3756,0.210518 -1.07862,-0.798059 -3.45157,-1.740766 -0.63226,-1.757931 2.62966,-0.698328 4.85466,2.033246 1.58065,3.384031 -2.08795,1.878964 -6.81678,4.148938 -8.12793,4.200132 3.81751,-2.313274 1.93455,-8.672416 -2.77807,-7.393401 -4.90964,-0.166633 -3.96283,6.976363 -8.30034,6.811532 -2.15545,-0.795503 4.59612,-4.698335 0.27369,-5.086914 -0.97261,-1.112907 -5.66637,0.779684 -3.74557,1.342789 4.47533,-0.663974 -0.5787,2.655062 -1.19745,4.252184 2.33815,2.701282 6.93286,1.013648 9.76929,-0.365577 1.57863,0.350891 5.65986,1.274392 1.70567,1.821573 -9.61956,1.905988 -19.68304,-1.021901 -27.88814,-6.108226 -7.2931,-4.511937 -13.09495,-11.40586 -16.00521,-19.537359 -2.23223,-5.714054 -3.47628,-11.98851 -2.4114,-18.096019 -0.15094,-3.611625 -1.32322,4.19251 -1.17423,5.717174 -0.33967,9.824494 3.91742,19.522275 11.04767,26.186166 7.06722,7.799324 16.90523,13.492786 27.5471,13.930043 9.51504,0.88201 20.02538,-1.838505 26.16714,-9.648477 2.17531,-2.662333 5.1485,-5.326908 4.49066,-9.135277 -0.0827,-7.421896 -0.0141,-14.848528 -0.0365,-22.272692 -2.49705,-5.503516 -5.82454,-10.707672 -9.99432,-15.070809 -1.75834,-1.551399 -3.82101,-2.686034 -5.74689,-4.003178 z m -1.03047,1.91715 c -1.51704,1.805301 3.97776,0.983347 0.5568,0.112341 -0.18557,-0.03745 -0.37119,-0.0749 -0.5568,-0.112341 z m 3.77171,2.722921 c -0.56409,1.861166 -7.65245,0.06398 -3.78545,1.353991 1.42241,0.61933 7.26366,2.558302 4.99842,-0.512716 l -0.57886,-0.463148 z m -35.6765,0.179631 c -2.35637,-0.168165 0.0878,2.105798 -0.69552,3.31353 1.71708,3.424838 5.04459,5.54719 7.59985,8.476467 3.39267,1.804932 0.67281,3.603475 -1.1095,5.140534 -0.40988,3.884247 6.61505,1.337106 2.52916,-0.668498 4.56629,-1.80732 -2.78702,-5.130252 -0.62296,-7.868715 0.5429,-1.552261 -3.06628,-3.360395 -1.34882,-0.989003 -1.92746,1.915635 -1.79131,-4.22356 -4.2631,-3.765744 -0.70561,-1.199101 -0.72208,-2.920248 -2.08911,-3.638571 z m -11.58177,0.266414 c -1.84147,-0.861191 -3.71164,2.968211 -1.01347,0.958819 1.66118,-0.04985 4.42157,3.815937 2.94964,-0.100012 -0.44322,-0.596575 -1.20339,-0.918926 -1.93617,-0.858807 z m 8.61514,2.025394 c -2.94917,1.826111 1.75644,2.567959 0,0 z m -12.53847,1.300806 c -1.57415,1.434523 1.12857,1.851443 0,0 z m -2.84468,0.206693 c -2.26998,1.341929 1.09174,2.380107 0,0 z m 17.02762,0.297674 c -1.41871,0.772889 1.37476,0.827503 0,0 z m 34.92661,0.05739 c -0.55686,1.75784 2.26606,-0.114844 0,0 z m -49.40821,1.517297 c -2.56214,2.907911 6.39325,4.65667 1.65952,1.877669 -0.62447,-0.559539 -1.10388,-1.254159 -1.65952,-1.877669 z m 5.30068,1.610142 c -1.1083,0.237891 -1.07079,1.96907 0,0 z m 48.16631,2.548425 c -3.04752,2.483435 4.50242,7.111778 3.29117,3.22499 -1.12011,-1.045215 -2.54498,-1.828741 -3.29117,-3.22499 z m -28.35339,0.636875 c -1.90572,0.963934 1.32586,1.038372 0,0 z m 20.84754,0.628472 c -2.48387,1.675068 -4.64116,1.450419 -6.40505,4.327173 -1.80863,1.680909 -4.02933,1.764826 -3.83455,4.740487 -0.22314,1.610092 -2.68686,6.01942 -0.71863,5.91925 1.01733,-0.754089 1.68957,-6.360172 2.23918,-3.302026 -0.70304,2.860203 0.6767,2.845551 1.87429,1.379821 1.54197,1.39906 0.5162,3.408105 -1.29641,1.974165 -4.0088,-0.155776 -4.58639,5.81335 -0.50895,6.373295 1.34438,0.80788 2.09498,3.621182 -0.1831,3.567131 0.67505,1.933797 3.09139,3.130033 2.46695,0.180435 -0.44326,-4.405497 2.51534,-7.436501 4.40552,-10.902275 0.18059,-3.879403 2.90772,-6.415669 4.81393,-9.233347 0.21772,-1.941678 -0.75913,-4.575358 -2.85318,-5.024109 z m -26.16075,1.28261 c -0.73358,2.024955 2.31396,0.524365 0,0 z m 24.42862,1.01713 c 1.52863,2.217793 -4.05293,0.601631 -0.6508,0.246548 z m -16.60882,0.893955 c -1.74948,1.355277 1.84571,1.337248 0,0 z m -7.12928,0.636872 c -1.51459,2.669224 1.96997,2.387378 0,0 z m 9.01722,0 c -2.19227,2.890055 4.5063,1.052967 0.45266,0.120299 z m 13.35886,0.413852 c 0.0777,0.947738 -1.01249,4.045638 0.96789,2.885868 -1.47262,1.148449 -2.58277,4.790757 -4.4809,3.956256 0.88687,-1.7539 1.8316,-2.727299 1.54818,-4.897217 0.2883,-0.933995 1.1077,-1.568346 1.96483,-1.944907 z m -14.68381,1.972206 c -3.08862,3.05606 4.04655,1.901937 0,0 z m 3.85006,0.92708 c -4.21745,1.086049 1.85745,6.780803 2.06311,2.052181 1.00392,-1.754505 -0.99822,-1.676717 -2.06311,-2.052181 z m -6.78748,0.8277 c -1.41918,0.772126 1.3747,0.828586 0,0 z m -4.36112,0.07419 c -1.78058,2.360707 2.02038,2.108998 0,0 z m 1.17655,2.473769 c -0.63994,0.774065 1.12768,0.456058 0,0 z m -1.56425,0.955543 c -2.53104,1.960175 4.02038,6.295501 2.58536,2.256661 -1.92309,0.526519 -1.87951,-1.515718 -2.58536,-2.256661 z m 8.22233,1.97687 c -3.16478,1.701487 3.26015,2.812532 1.35724,0.193484 l -0.67138,-0.144094 z m -21.15453,3.538027 c -1.05251,2.209903 -7.13346,-0.971057 -4.80026,2.687644 1.68496,1.331153 4.96361,-1.212302 5.3518,-2.233375 l -0.2129,-0.305517 z m 25.27915,0.537025 c -1.41918,0.772126 1.37469,0.828584 0,0 z m -26.11949,3.59075 c -0.79055,1.941202 4.34529,2.872228 3.09109,0.654676 -0.86257,1.85081 -2.12539,-0.18518 -3.09109,-0.654676 z m 49.23061,2.779375 c 1.47863,1.061197 -1.46838,1.279582 0,0 z m 2.55249,1.291474 c 2.04773,1.230092 -1.38601,1.672962 0,0 z m -48.03506,1.178566 c -3.02246,-1.388419 -1.87579,5.002115 -0.27545,1.464283 0.44377,-0.329404 1.23276,-1.135873 0.27545,-1.464283 z m 23.06105,2.975338 c -2.10109,0.01756 0.40887,1.610064 0,0 z m -19.26892,0.75165 c -3.98387,0.07825 -1.601,3.343537 0.46738,4.312544 0.77697,1.432699 5.77989,2.961198 4.39131,0.740263 -2.33782,-0.473595 -6.09638,-1.935147 -4.85869,-5.052807 z m 25.73781,0.619609 c -2.32541,-0.188811 -1.24988,4.024003 -0.11197,1.195887 0.17752,-0.331239 0.4035,-0.843375 0.11197,-1.195887 z m -22.38904,1.135172 c -3.12565,0.595735 1.43714,2.4544 0,0 z m 43.24262,0.08305 c -0.86595,2.923006 -2.56901,1.702023 -0.245,0.161781 l 0.16309,-0.107698 z m -35.81054,1.590082 c -5.37309,-0.877494 -3.25017,7.272679 0.98119,6.914097 1.97094,0.988786 5.83464,-1.800968 1.69809,-1.3419 -4.49217,0.513811 -6.06912,-5.346157 -0.78439,-5.024222 -0.40293,-0.488751 -1.30241,-0.478822 -1.89489,-0.547975 z m 18.96471,1.187429 c 5.20971,-0.07499 0.30931,7.829133 -2.07874,3.046666 -0.73927,-1.376659 0.49464,-3.310518 2.07874,-3.046666 z m -15.00471,0.01728 c -1.62218,1.593823 2.60378,2.441246 0.42314,0.160365 l -0.19494,-0.124467 z"
     id="path5792"
     inkscape:connector-curvature="0" />
  <path
     style="fill:#2d2723;fill-opacity:1;stroke-width:0.27820697"
     d="m 330.89459,84.129166 c -19.79934,-0.80237 -42.00129,3.427825 -51.40036,13.49591 -5.6027,8.832314 17.73621,15.338564 28.19574,13.158894 -13.85373,0.0241 -26.97559,-2.20842 -26.62768,-11.658517 2.84732,-8.680472 19.94224,-11.709556 33.32804,-13.688005 15.66147,-1.615095 35.71055,-0.514028 46.38977,7.330051 9.88931,8.038461 5.11702,19.692531 -9.31908,24.325711 -18.91841,7.46802 -43.45287,8.12235 -66.06253,9.51619 -27.2809,1.03171 -55.2408,-2.79128 -78.95356,-11.15834 C 177.93441,106.70132 149.2704,97.341389 117.86481,92.692526 98.293871,90.506375 77.927135,87.396665 58.474466,90.442937 39.650889,92.950757 22.990351,98.94327 8.5673773,105.81757 -1.4047695,111.66476 18.135635,103.32498 22.438053,101.82654 41.607857,94.302789 66.543631,91.339639 90.082547,94.527724 129.8001,97.37272 165.33975,109.41852 200.15006,120.2287 c 21.2066,7.02421 45.57382,10.85205 69.74564,10.00521 28.41726,-0.4091 57.76245,-3.3436 81.5471,-11.89735 15.08278,-4.63823 22.61687,-15.82374 12.40928,-24.651278 -6.86399,-6.629212 -20.2804,-9.191604 -32.95749,-9.556116 z"
     id="path5159-3"
     inkscape:connector-curvature="0" />
</svg>
